<svg viewBox="0 0 900 370" xmlns="http://www.w3.org/2000/svg" font-family="Segoe UI, Helvetica, Arial, sans-serif">
  <defs>
    <linearGradient id="bg" x1="0" y1="0" x2="1" y2="1">
      <stop offset="0%" stop-color="#1a73e8"/>
      <stop offset="100%" stop-color="#0d47a1"/>
    </linearGradient>
  </defs>

  <rect width="900" height="370" rx="18" fill="url(#bg)"/>

  <text x="40" y="46" fill="#ffffff" font-size="30" font-weight="700">GCP Emulator</text>
  <text x="40" y="70" fill="#dbe7fb" font-size="13">A portable, single-binary Google Cloud emulator written in Go &#8212; no Docker, no Postgres</text>

  <!-- stat pills -->
  <g>
    <rect x="40" y="84" width="150" height="26" rx="13" fill="#ffffff" opacity="0.15"/>
    <text x="115" y="101" text-anchor="middle" font-size="11" font-weight="700" fill="#ffffff">33 APIs emulated</text>

    <rect x="198" y="84" width="195" height="26" rx="13" fill="#ffffff" opacity="0.15"/>
    <text x="295.5" y="101" text-anchor="middle" font-size="11" font-weight="700" fill="#ffffff">BoltDB &#183; zero external deps</text>

    <rect x="401" y="84" width="300" height="26" rx="13" fill="#ffffff" opacity="0.15"/>
    <text x="551" y="101" text-anchor="middle" font-size="11" font-weight="700" fill="#ffffff">Phase 11: real dispatch, interpreters, enforcement</text>
  </g>

  <line x1="40" y1="126" x2="860" y2="126" stroke="#ffffff" stroke-opacity="0.25" stroke-width="1"/>

  <rect x="40" y="150" width="96" height="26" rx="6" fill="#1a73e8" opacity="0.92"/>
  <text x="88.0" y="167.0" text-anchor="middle" font-size="9.5" font-weight="600" fill="#ffffff">IAM</text>
  <rect x="144" y="150" width="96" height="26" rx="6" fill="#34a853" opacity="0.92"/>
  <text x="192.0" y="167.0" text-anchor="middle" font-size="9.5" font-weight="600" fill="#ffffff">Cloud Storage</text>
  <rect x="248" y="150" width="96" height="26" rx="6" fill="#fbbc04" opacity="0.92"/>
  <text x="296.0" y="167.0" text-anchor="middle" font-size="9.5" font-weight="600" fill="#1a1a2e">Compute Engine</text>
  <rect x="352" y="150" width="96" height="26" rx="6" fill="#ea4335" opacity="0.92"/>
  <text x="400.0" y="167.0" text-anchor="middle" font-size="9.5" font-weight="600" fill="#ffffff">Pub/Sub</text>
  <rect x="456" y="150" width="96" height="26" rx="6" fill="#1a73e8" opacity="0.92"/>
  <text x="504.0" y="167.0" text-anchor="middle" font-size="9.5" font-weight="600" fill="#ffffff">Cloud Run</text>
  <rect x="560" y="150" width="96" height="26" rx="6" fill="#34a853" opacity="0.92"/>
  <text x="608.0" y="167.0" text-anchor="middle" font-size="9.5" font-weight="600" fill="#ffffff">Cloud Functions</text>
  <rect x="664" y="150" width="96" height="26" rx="6" fill="#fbbc04" opacity="0.92"/>
  <text x="712.0" y="167.0" text-anchor="middle" font-size="9.5" font-weight="600" fill="#1a1a2e">Cloud SQL</text>
  <rect x="768" y="150" width="96" height="26" rx="6" fill="#ea4335" opacity="0.92"/>
  <text x="816.0" y="167.0" text-anchor="middle" font-size="9.5" font-weight="600" fill="#ffffff">Firestore</text>
  <rect x="40" y="186" width="96" height="26" rx="6" fill="#1a73e8" opacity="0.92"/>
  <text x="88.0" y="203.0" text-anchor="middle" font-size="9.5" font-weight="600" fill="#ffffff">BigQuery</text>
  <rect x="144" y="186" width="96" height="26" rx="6" fill="#34a853" opacity="0.92"/>
  <text x="192.0" y="203.0" text-anchor="middle" font-size="9.5" font-weight="600" fill="#ffffff">Cloud KMS</text>
  <rect x="248" y="186" width="96" height="26" rx="6" fill="#fbbc04" opacity="0.92"/>
  <text x="296.0" y="203.0" text-anchor="middle" font-size="9.5" font-weight="600" fill="#1a1a2e">Cloud Logging</text>
  <rect x="352" y="186" width="96" height="26" rx="6" fill="#ea4335" opacity="0.92"/>
  <text x="400.0" y="203.0" text-anchor="middle" font-size="9.5" font-weight="600" fill="#ffffff">Cloud Monitoring</text>
  <rect x="456" y="186" width="96" height="26" rx="6" fill="#1a73e8" opacity="0.92"/>
  <text x="504.0" y="203.0" text-anchor="middle" font-size="9.5" font-weight="600" fill="#ffffff">Resource Mgr</text>
  <rect x="560" y="186" width="96" height="26" rx="6" fill="#34a853" opacity="0.92"/>
  <text x="608.0" y="203.0" text-anchor="middle" font-size="9.5" font-weight="600" fill="#ffffff">Cloud Scheduler</text>
  <rect x="664" y="186" width="96" height="26" rx="6" fill="#fbbc04" opacity="0.92"/>
  <text x="712.0" y="203.0" text-anchor="middle" font-size="9.5" font-weight="600" fill="#1a1a2e">Cloud Tasks</text>
  <rect x="768" y="186" width="96" height="26" rx="6" fill="#ea4335" opacity="0.92"/>
  <text x="816.0" y="203.0" text-anchor="middle" font-size="9.5" font-weight="600" fill="#ffffff">Cloud DNS</text>
  <rect x="40" y="222" width="96" height="26" rx="6" fill="#1a73e8" opacity="0.92"/>
  <text x="88.0" y="239.0" text-anchor="middle" font-size="9.5" font-weight="600" fill="#ffffff">Load Balancing</text>
  <rect x="144" y="222" width="96" height="26" rx="6" fill="#34a853" opacity="0.92"/>
  <text x="192.0" y="239.0" text-anchor="middle" font-size="9.5" font-weight="600" fill="#ffffff">Cloud Build</text>
  <rect x="248" y="222" width="96" height="26" rx="6" fill="#fbbc04" opacity="0.92"/>
  <text x="296.0" y="239.0" text-anchor="middle" font-size="9.5" font-weight="600" fill="#1a1a2e">Memorystore</text>
  <rect x="352" y="222" width="96" height="26" rx="6" fill="#ea4335" opacity="0.92"/>
  <text x="400.0" y="239.0" text-anchor="middle" font-size="9.5" font-weight="600" fill="#ffffff">Cloud Spanner</text>
  <rect x="456" y="222" width="96" height="26" rx="6" fill="#1a73e8" opacity="0.92"/>
  <text x="504.0" y="239.0" text-anchor="middle" font-size="9.5" font-weight="600" fill="#ffffff">GKE</text>
  <rect x="560" y="222" width="96" height="26" rx="6" fill="#34a853" opacity="0.92"/>
  <text x="608.0" y="239.0" text-anchor="middle" font-size="9.5" font-weight="600" fill="#ffffff">Eventarc</text>
  <rect x="664" y="222" width="96" height="26" rx="6" fill="#fbbc04" opacity="0.92"/>
  <text x="712.0" y="239.0" text-anchor="middle" font-size="9.5" font-weight="600" fill="#1a1a2e">Workflows</text>
  <rect x="768" y="222" width="96" height="26" rx="6" fill="#ea4335" opacity="0.92"/>
  <text x="816.0" y="239.0" text-anchor="middle" font-size="9.5" font-weight="600" fill="#ffffff">Artifact Reg.</text>
  <rect x="40" y="258" width="96" height="26" rx="6" fill="#1a73e8" opacity="0.92"/>
  <text x="88.0" y="275.0" text-anchor="middle" font-size="9.5" font-weight="600" fill="#ffffff">Secret Manager</text>
  <rect x="144" y="258" width="96" height="26" rx="6" fill="#34a853" opacity="0.92"/>
  <text x="192.0" y="275.0" text-anchor="middle" font-size="9.5" font-weight="600" fill="#ffffff">Org Policy</text>
  <rect x="248" y="258" width="96" height="26" rx="6" fill="#fbbc04" opacity="0.92"/>
  <text x="296.0" y="275.0" text-anchor="middle" font-size="9.5" font-weight="600" fill="#1a1a2e">Billing Budgets</text>
  <rect x="352" y="258" width="96" height="26" rx="6" fill="#ea4335" opacity="0.92"/>
  <text x="400.0" y="275.0" text-anchor="middle" font-size="9.5" font-weight="600" fill="#ffffff">Cert Manager</text>
  <rect x="456" y="258" width="96" height="26" rx="6" fill="#1a73e8" opacity="0.92"/>
  <text x="504.0" y="275.0" text-anchor="middle" font-size="9.5" font-weight="600" fill="#ffffff">Filestore</text>
  <rect x="560" y="258" width="96" height="26" rx="6" fill="#34a853" opacity="0.92"/>
  <text x="608.0" y="275.0" text-anchor="middle" font-size="9.5" font-weight="600" fill="#ffffff">IAP</text>
  <rect x="664" y="258" width="96" height="26" rx="6" fill="#fbbc04" opacity="0.92"/>
  <text x="712.0" y="275.0" text-anchor="middle" font-size="9.5" font-weight="600" fill="#1a1a2e">Svc Networking</text>
  <rect x="768" y="258" width="96" height="26" rx="6" fill="#ea4335" opacity="0.92"/>
  <text x="816.0" y="275.0" text-anchor="middle" font-size="9.5" font-weight="600" fill="#ffffff">VPC Access</text>
  <rect x="40" y="294" width="96" height="26" rx="6" fill="#1a73e8" opacity="0.92"/>
  <text x="88.0" y="311.0" text-anchor="middle" font-size="9.5" font-weight="600" fill="#ffffff">Network Mgmt</text>

  <text x="40" y="354" fill="#dbe7fb" font-size="11">Verified end-to-end with real terraform apply/destroy and gcloud/SDK clients &#8212; see ROADMAP.md</text>
</svg>
